<svg width="96" height="96" viewBox="0 0 96 96" fill="none" xmlns="http://www.w3.org/2000/svg">
<path d="M48 64C65.6731 64 80 51.464 80 36C80 20.536 65.6731 8 48 8C30.3269 8 16 20.536 16 36C16 51.464 30.3269 64 48 64Z" stroke="#897053" stroke-width="7" stroke-linecap="round" stroke-linejoin="round"/>
<path d="M48 36C48 31.7565 49.6857 27.6869 52.6863 24.6863C55.6869 21.6857 59.7565 20 64 20C68.2435 20 72.3131 21.6857 75.3137 24.6863C78.3143 27.6869 80 31.7565 80 36V84H64C37.6 84 16 62.4 16 36C16 31.7565 17.6857 27.6869 20.6863 24.6863C23.6869 21.6857 27.7565 20 32 20C36.2435 20 40.3131 21.6857 43.3137 24.6863C46.3143 27.6869 48 31.7565 48 36ZM48 36V40" stroke="#897053" stroke-width="7" stroke-linecap="round" stroke-linejoin="round"/>
<path d="M32 36H32.04" stroke="#897053" stroke-width="7" stroke-linecap="round" stroke-linejoin="round"/>
<path d="M64 36H64.04" stroke="#897053" stroke-width="7" stroke-linecap="round" stroke-linejoin="round"/>
<path d="M80 84C75.8626 84 71.8947 82.3564 68.9691 79.4309C66.0436 76.5053 64.4 72.5374 64.4 68.4C64.4 64.2626 66.0436 60.2947 68.9691 57.3691C71.8947 54.4436 75.8626 52.8 80 52.8" stroke="#897053" stroke-width="7" stroke-linecap="round" stroke-linejoin="round"/>
<path d="M40 77.6V88" stroke="#897053" stroke-width="7" stroke-linecap="round" stroke-linejoin="round"/>
<path d="M56 83.4V88" stroke="#897053" stroke-width="7" stroke-linecap="round" stroke-linejoin="round"/>
</svg>
